<svg xmlns="http://www.w3.org/2000/svg" viewBox="0 0 600 600" fill="none" shape-rendering="auto"><metadata xmlns:rdf="http://www.w3.org/1999/02/22-rdf-syntax-ns#" xmlns:xsi="http://www.w3.org/2001/XMLSchema-instance" xmlns:dc="http://purl.org/dc/elements/1.1/" xmlns:dcterms="http://purl.org/dc/terms/"><rdf:RDF><rdf:Description><dc:title>Lorelei Neutral</dc:title><dc:creator>Lisa Wischofsky</dc:creator><dc:source xsi:type="dcterms:URI">https://www.figma.com/community/file/1198749693280469639</dc:source><dcterms:license xsi:type="dcterms:URI">https://creativecommons.org/publicdomain/zero/1.0/</dcterms:license><dc:rights>Remix of „Lorelei Neutral” (https://www.figma.com/community/file/1198749693280469639) by „Lisa Wischofsky”, licensed under „CC0 1.0” (https://creativecommons.org/publicdomain/zero/1.0/)</dc:rights></rdf:Description></rdf:RDF></metadata><mask id="viewboxMask"><rect width="600" height="600" rx="0" ry="0" x="0" y="0" fill="#fff" /></mask><g mask="url(#viewboxMask)"><rect fill="url(#backgroundLinear)" width="600" height="600" x="0" y="0" /><defs><linearGradient id="backgroundLinear" gradientTransform="rotate(206 0.5 0.5)"><stop stop-color="#ffdfbf"/><stop offset="1" stop-color="#ffd5dc"/></linearGradient></defs><g transform="rotate(350, 300, 300)"><g transform="scale(-1 1) translate(-600 0)"><g transform="translate(-246 -234)"><path d="M480 404c10 1 19 0 29 3 9 3 18 10 22 19 4 6 2 16-6 19-6 4-15 3-23 2-20-3-40-9-60-14l-20-4-10-2-4-4c2-4 6-6 10-7l20-7 18-3 24-2ZM656 410c8 1 15 4 22 7l9 4c2 2 3 6 1 8l-10 4c-17 4-33 11-51 12l-9 1c-3 0-6-2-8-4-3-2-4-5-4-9 0-7 2-15 8-20 4-3 11-4 16-5 8 0 17 0 26 2Z" fill="#000000"/></g><g transform="translate(-246 -234)"><path d="M642 509c6-1 10 2 13 7 3 7 3 17-1 24-3 5-10 8-16 5-5-3-6-8-7-13-1-4 0-10 2-14s5-8 9-9ZM494 514c6-3 11-1 15 3 5 6 6 15 2 22-2 5-8 11-14 11-5 0-9-4-12-8-3-7-2-14 1-21 2-3 5-6 8-7Z" fill="#000000"/></g><g transform="translate(-246 -234)"></g><g transform="translate(-246 -234)"><path d="M619 659c1 3-1 7-2 9-5 9-14 13-21 21 0 4-2 7-3 11-3 9-6 17-13 23-3 2-7 2-11 1-3 0-6-2-7-5-1-5 0-9 3-13 6-12 16-19 26-27 8-6 15-10 21-17 2-1 4-4 7-3Z" fill="#000000"/></g><g transform="translate(-246 -234)"><path d="M603 613v1c-4 8-11 15-20 18-3 1-7 1-9-1v-4c7-5 16-9 24-12l5-2Z" fill="#000000"/></g><g transform="translate(-246 -234)"></g></g></g></g></svg>